<?xml version="1.0" encoding="iso-8859-1"?>
<!-- Generator: Adobe Illustrator 19.0.0, SVG Export Plug-In . SVG Version: 6.00 Build 0)  -->
<svg version="1.1" id="Capa_1" xmlns="http://www.w3.org/2000/svg" xmlns:xlink="http://www.w3.org/1999/xlink" x="0px" y="0px"
	 viewBox="0 0 451.385 451.385" style="enable-background:new 0 0 451.385 451.385;" xml:space="preserve">
<path id="XMLID_293_" d="M236.956,139.488c0,5.522-4.477,10-10,10h-2.528c-5.523,0-10-4.478-10-10s4.477-10,10-10h2.528
	C232.479,129.488,236.956,133.966,236.956,139.488z M351.429,348.828c1.408,2.814,1.408,6.129,0,8.943l-26.253,52.509
	c-1.694,3.388-5.156,5.528-8.944,5.528c-3.788,0-7.25-2.14-8.944-5.527l-26.255-52.509c-1.408-2.815-1.408-6.13,0-8.945
	l25.199-50.397v-45.112c-20.211,14.341-44.392,23.444-70.539,25.305v55.385l25.197,50.397c1.408,2.814,1.408,6.129,0,8.943
	l-26.253,52.509c-1.694,3.388-5.157,5.528-8.944,5.528s-7.25-2.141-8.944-5.528l-26.253-52.509c-1.408-2.814-1.408-6.129,0-8.943
	l25.197-50.397v-55.385c-26.147-1.86-50.328-10.964-70.539-25.305v45.113l25.197,50.397c1.408,2.814,1.408,6.129,0,8.943
	l-26.253,52.509c-1.694,3.389-5.157,5.528-8.944,5.528s-7.25-2.14-8.944-5.528l-26.254-52.509c-1.408-2.814-1.408-6.129,0-8.943
	l25.198-50.397v-62.347c-24.11-25.085-38.949-59.139-38.949-96.596c0-38.025,15.296-72.547,40.056-97.734
	c0.245-0.312,0.511-0.612,0.798-0.899c0.288-0.287,0.588-0.554,0.9-0.798C153.145,15.296,187.667,0,225.692,0
	s72.547,15.296,97.734,40.057c0.312,0.244,0.612,0.511,0.9,0.798c0.287,0.287,0.553,0.588,0.798,0.899
	c24.76,25.188,40.056,59.709,40.056,97.734c0,37.457-14.838,71.511-38.949,96.596v62.347L351.429,348.828z M316.921,62.402
	l-50.887,50.888c3.17,4.865,5.485,10.336,6.729,16.198h72.003C342.648,104.04,332.523,80.837,316.921,62.402z M235.692,92.418
	c5.863,1.244,11.333,3.559,16.199,6.729l50.887-50.888c-18.435-15.603-41.638-25.728-67.086-27.845V92.418z M148.606,48.26
	l50.888,50.887c4.864-3.169,10.337-5.484,16.198-6.729V20.415C190.244,22.532,167.041,32.657,148.606,48.26z M106.619,129.488
	h72.002c1.244-5.862,3.56-11.334,6.73-16.2l-50.887-50.886C118.862,80.837,108.737,104.04,106.619,129.488z M135.153,323.152
	L120.08,353.3l15.074,30.147l15.073-30.147L135.153,323.152z M185.351,165.688c-3.17-4.866-5.486-10.338-6.73-16.2h-72.002
	c2.118,25.448,12.242,48.651,27.845,67.086L185.351,165.688z M215.692,258.563v-72.004c-5.861-1.244-11.334-3.56-16.198-6.729
	l-50.888,50.887C167.041,246.319,190.244,256.444,215.692,258.563z M225.692,358.729l-15.073,30.147l15.073,30.147l15.073-30.147
	L225.692,358.729z M253.808,139.488c0-15.503-12.612-28.115-28.115-28.115c-15.503,0-28.116,12.612-28.116,28.115
	s12.613,28.115,28.116,28.115C241.195,167.604,253.808,154.991,253.808,139.488z M302.779,230.717l-50.887-50.888
	c-4.866,3.171-10.336,5.485-16.199,6.729v72.004C261.141,256.444,284.344,246.319,302.779,230.717z M316.921,216.574
	c15.603-18.435,25.727-41.638,27.845-67.086h-72.003c-1.244,5.862-3.559,11.333-6.729,16.198L316.921,216.574z M331.304,353.3
	l-15.073-30.147L301.157,353.3l15.074,30.147L331.304,353.3z"/>
<g>
</g>
<g>
</g>
<g>
</g>
<g>
</g>
<g>
</g>
<g>
</g>
<g>
</g>
<g>
</g>
<g>
</g>
<g>
</g>
<g>
</g>
<g>
</g>
<g>
</g>
<g>
</g>
<g>
</g>
</svg>
