<?xml version="1.0" encoding="iso-8859-1"?>
<!-- Generator: Adobe Illustrator 19.0.0, SVG Export Plug-In . SVG Version: 6.00 Build 0)  -->
<svg version="1.1" id="Capa_1" xmlns="http://www.w3.org/2000/svg" xmlns:xlink="http://www.w3.org/1999/xlink" x="0px" y="0px"
	 viewBox="0 0 511.999 511.999" style="enable-background:new 0 0 511.999 511.999;" xml:space="preserve">
<g>
	<g>
		<g>
			<path d="M448.806,418.384c-0.008-0.038-0.014-0.075-0.022-0.113c-0.964-4.954-2.267-10.068-3.934-15.314
				c-7.702-24.246-25.394-57.611-42.86-74.772c0.576-3.741,0.327-7.664-0.894-11.509c-3.99-12.558-16.898-19.852-29.524-17.131
				c-4.886-10.324-8.997-22.983-11.333-34.992c29.896-27.919,48.621-67.658,48.621-111.693c0-34.421-11.217-66.946-32.438-94.058
				c-2.553-3.263-7.269-3.837-10.528-1.283c-3.262,2.553-3.836,7.267-1.283,10.528c19.135,24.447,29.25,53.775,29.25,84.813
				c0,76.016-61.844,137.86-137.86,137.86s-137.86-61.844-137.86-137.86C118.14,76.844,179.984,15,255.999,15
				c31.374,0,60.953,10.313,85.54,29.823c3.245,2.575,7.963,2.031,10.537-1.213c2.575-3.245,2.032-7.963-1.213-10.537
				C323.598,11.437,290.794,0,255.999,0c-84.287,0-152.86,68.573-152.86,152.86c0,44.035,18.724,83.774,48.621,111.693
				c-2.336,12.009-6.447,24.668-11.333,34.992c-12.628-2.721-25.534,4.574-29.524,17.132c-1.221,3.845-1.471,7.768-0.894,11.509
				c-17.466,17.161-35.158,50.526-42.86,74.772c-1.666,5.246-2.97,10.36-3.934,15.314c-0.008,0.037-0.014,0.075-0.022,0.113
				c-2.448,12.65-2.604,24.217-0.381,34.007c3.234,14.245,11.332,24.097,22.801,27.74c2.985,0.948,6.037,1.423,9.129,1.423
				c2.236,0,4.494-0.249,6.76-0.746c4.046-0.888,6.605-4.888,5.718-8.934c-0.888-4.046-4.89-6.603-8.934-5.718
				c-2.794,0.613-5.529,0.504-8.132-0.322c-7.936-2.521-11.295-10.508-12.715-16.765c-1.195-5.263-1.908-13.217-0.179-24.226
				l21.6-11.185l-3.464,10.903c-1.254,3.948,0.93,8.165,4.878,9.418c0.755,0.24,1.52,0.354,2.272,0.354
				c3.18,0,6.132-2.039,7.146-5.232l3.464-10.903l11.173,21.577c-1.738,3.508-3.599,6.757-5.589,9.699
				c-2.321,3.431-1.422,8.094,2.009,10.415c1.288,0.872,2.75,1.289,4.196,1.289c2.406,0,4.769-1.156,6.219-3.298
				c3.072-4.54,5.867-9.64,8.384-15.218c0.021-0.048,0.044-0.095,0.064-0.143c2.068-4.599,3.953-9.515,5.619-14.76
				c7.703-24.247,12.51-61.711,8.147-85.805c2.674-2.773,4.713-6.129,5.913-9.908c2.053-6.462,1.466-13.338-1.652-19.359
				c-1.107-2.137-2.497-4.065-4.104-5.769c4.562-9.418,8.46-20.429,11.191-31.515c23.189,17.316,51.438,28.205,82.088,30.03v18.87
				c-10.348,3.207-17.886,12.866-17.886,24.254c0,4.034,0.95,7.849,2.632,11.24c-11.45,21.644-18.21,58.8-18.21,84.239
				c0,46.948,20.574,67.962,40.964,67.962c20.39,0,40.964-21.014,40.964-67.962c0-25.439-6.76-62.596-18.21-84.239
				c1.682-3.391,2.632-7.205,2.632-11.239c0-11.388-7.538-21.047-17.886-24.254v-18.707c31.948-1.202,61.421-12.244,85.457-30.193
				c2.731,11.086,6.63,22.097,11.191,31.515c-1.607,1.704-2.998,3.631-4.104,5.769c-3.118,6.021-3.705,12.897-1.652,19.359
				c1.2,3.779,3.239,7.135,5.913,9.908c-4.363,24.094,0.444,61.558,8.147,85.805c1.667,5.247,3.554,10.178,5.627,14.78
				c0.013,0.032,0.029,0.062,0.042,0.094c5.301,11.747,11.851,21.286,19.318,28c8.008,7.202,16.797,10.926,25.46,10.926
				c3.086,0,6.158-0.473,9.171-1.431c11.47-3.643,19.568-13.495,22.802-27.74C451.41,442.601,451.254,431.034,448.806,418.384z
				 M105.285,393.442l-23.163,11.994c7.579-22.706,22.137-48.591,35.097-63.068c1.038,1.035,2.168,1.989,3.389,2.839
				L105.285,393.442z M131.575,421.146l-11.995-23.163l15.321-48.23c0.075,0.001,0.15,0.009,0.225,0.009
				c1.403,0,2.801-0.125,4.184-0.359C141.536,368.704,138.486,398.234,131.575,421.146z M144.997,327.506
				c-1.733,5.458-7.583,8.489-13.042,6.754c-5.458-1.734-8.488-7.585-6.754-13.042c1.403-4.416,5.5-7.242,9.905-7.242
				c1.039,0,2.096,0.157,3.138,0.488c2.644,0.84,4.803,2.659,6.078,5.122C145.596,322.05,145.835,324.863,144.997,327.506z
				 M242.726,371.134c1.303,0.672,2.668,1.239,4.09,1.68v50.61l-18.444,18.444C228.721,417.933,234.757,388.855,242.726,371.134z
				 M271.51,484.872c-3.248,5.533-8.868,12.128-17.195,12.128c-8.327,0-13.946-6.596-17.195-12.129
				c-2.732-4.654-5.82-12.019-7.505-23.035l17.2-17.2v11.44c0,4.142,3.358,7.5,7.5,7.5c4.142,0,7.5-3.358,7.5-7.5v-11.44
				l17.2,17.199C277.331,472.852,274.243,480.217,271.51,484.872z M280.26,441.867l-18.444-18.444v-50.61
				c1.422-0.44,2.786-1.008,4.09-1.68C273.874,388.855,279.911,417.932,280.26,441.867z M264.702,348.56
				c0,5.727-4.659,10.386-10.386,10.386c-5.727,0-10.386-4.659-10.386-10.386s4.659-10.386,10.386-10.386
				C260.043,338.174,264.702,342.833,264.702,348.56z M394.782,342.368c12.96,14.477,27.517,40.362,35.097,63.068l-23.163-11.994
				l-15.323-48.234C392.614,344.357,393.743,343.403,394.782,342.368z M367.003,327.507c-0.84-2.644-0.6-5.457,0.676-7.92
				c1.275-2.463,3.434-4.283,6.079-5.122c1.042-0.331,2.098-0.488,3.137-0.488c4.404,0,8.502,2.827,9.905,7.242
				c1.734,5.458-1.296,11.309-6.753,13.043C374.585,335.995,368.737,332.964,367.003,327.507z M372.689,349.402
				c1.383,0.234,2.781,0.359,4.184,0.359c0.075,0,0.15-0.008,0.225-0.009l15.321,48.231l-11.995,23.163
				C373.513,398.234,370.463,368.704,372.689,349.402z M434.559,449.071c-1.42,6.257-4.779,14.244-12.716,16.765
				c-7.936,2.52-15.289-2.063-20.06-6.354c-4.013-3.608-9.186-9.69-14.128-19.68l11.186-21.602l3.464,10.903
				c1.014,3.193,3.966,5.232,7.146,5.232c0.752,0,1.518-0.114,2.272-0.354c3.948-1.254,6.131-5.471,4.878-9.418l-3.464-10.903
				l21.6,11.185C436.467,435.853,435.754,443.808,434.559,449.071z"/>
			<path d="M255.999,39.294c-13.105,0-25.696,2.239-37.419,6.342c-0.411,0.108-0.808,0.247-1.188,0.419
				c-25.476,9.237-46.736,27.343-60.03,50.569c-0.003,0.005-0.006,0.011-0.009,0.016c-9.49,16.586-14.92,35.78-14.92,56.219
				c0,26.491,9.119,50.891,24.381,70.23c0.018,0.023,0.032,0.048,0.05,0.07c0.021,0.026,0.044,0.047,0.065,0.073
				c20.818,26.292,53.006,43.192,89.069,43.192c19.603,0,38.062-4.994,54.173-13.774c0.031-0.017,0.062-0.035,0.093-0.052
				c27.685-15.123,48.411-41.439,56.068-72.821c0.022-0.086,0.044-0.171,0.063-0.257c2.066-8.554,3.169-17.48,3.169-26.66
				C369.565,90.24,318.62,39.294,255.999,39.294z M216.77,153.731c0.303,2.592,0.773,5.086,1.382,7.481l-14.433,18.543
				l-10.663-49.205l25.754,5.283C216.775,141.345,216.038,147.461,216.77,153.731z M225.077,176.735
				c6.731,9.721,16.797,15.541,28.229,15.541c1.134,0,2.283-0.058,3.442-0.174c0.014-0.002,0.027-0.004,0.04-0.005l4.855,20.554
				l-49.718-19.019L225.077,176.735z M261.159,176.246c-0.13,0.023-0.26,0.041-0.39,0.071c-0.049,0.011-0.095,0.029-0.143,0.041
				c-1.639,0.349-3.42,0.622-5.374,0.818c-0.68,0.068-1.344,0.102-1.996,0.102c-12.782-0.001-20.127-12.808-21.585-25.29
				c-0.812-6.945,1.207-13.458,5.538-17.868c3.71-3.777,8.851-5.732,14.995-5.732c0.995,0,2.016,0.051,3.062,0.154
				c9.195,0.907,18.32,5.584,22.706,11.641c2.546,3.515,3.359,7.128,2.488,11.047C277.178,165.984,273.456,173.448,261.159,176.246z
				 M292.765,163.492l19.614,1.693l-36.314,43.265l-4.666-19.754C283.954,183.633,289.476,174.082,292.765,163.492z
				 M295.788,148.697c0.098-6.093-1.815-11.991-5.669-17.312c-1.642-2.267-3.617-4.37-5.841-6.29l11.099-19.852l20.021,45.147
				L295.788,148.697z M255.999,54.294c10.37,0,20.369,1.614,29.765,4.597l2.101,21.8l-59.718-2.109l-0.124-20.238
				C236.897,55.714,246.285,54.294,255.999,54.294z M223.546,93.429l60.066,2.121l-12.157,21.744
				c-4.613-1.902-9.607-3.175-14.718-3.679c-11.328-1.117-21.522,1.986-28.93,8.748l-28.818-5.911L223.546,93.429z M213.059,64.151
				l0.113,18.442l-29.555,27.709l-10.342-10.971C183.049,84.279,196.812,72.048,213.059,64.151z M174.186,207.77
				c-10.573-15.702-16.751-34.598-16.751-54.91c0-14.09,2.978-27.496,8.328-39.63l10.639,11.286l15.067,69.53L174.186,207.77z
				 M255.999,251.425c-28.656,0-54.49-12.295-72.517-31.883l17.618-13.991l67.755,25.92l21.95,13.602
				C279.978,249.173,268.247,251.425,255.999,251.425z M306.766,237.315l-23.251-14.408l45.523-54.238l21.308,12.733
				C343.202,204.971,327.453,224.834,306.766,237.315z M354.565,152.86c0,4.431-0.299,8.793-0.868,13.07l-15.383-9.192
				l14.871-20.327C354.088,141.762,354.565,147.256,354.565,152.86z M329.001,144.063l-25.5-57.504l-2.037-21.133
				c21.304,11.123,38.058,29.803,46.686,52.463L329.001,144.063z"/>
		</g>
	</g>
</g>
<g>
</g>
<g>
</g>
<g>
</g>
<g>
</g>
<g>
</g>
<g>
</g>
<g>
</g>
<g>
</g>
<g>
</g>
<g>
</g>
<g>
</g>
<g>
</g>
<g>
</g>
<g>
</g>
<g>
</g>
</svg>
