<?xml version="1.0" encoding="iso-8859-1"?>
<!-- Generator: Adobe Illustrator 19.0.0, SVG Export Plug-In . SVG Version: 6.00 Build 0)  -->
<svg version="1.1" id="Capa_1" xmlns="http://www.w3.org/2000/svg" xmlns:xlink="http://www.w3.org/1999/xlink" x="0px" y="0px"
	 viewBox="0 0 470 470" style="enable-background:new 0 0 470 470;" xml:space="preserve">
<g>
	<path style="fill:#E63A2A;" d="M130.477,349.797l-12.602,21.828c3.411,8.283,7.61,16.346,12.602,24.1
		c4.992-7.754,9.191-15.817,12.602-24.101L130.477,349.797z"/>
	<path style="fill:#E63A2A;" d="M234.995,403.403l-12.603,21.821c3.412,8.286,7.611,16.352,12.605,24.107
		c4.992-7.753,9.19-15.815,12.602-24.098L234.995,403.403z"/>
	<path style="fill:#FBD7B5;" d="M242.497,358.404c0,4.142-3.358,7.5-7.5,7.5c-4.142,0-7.5-3.358-7.5-7.5l0.001-50.504
		c-10.34,20.182-15.731,41.996-15.731,64.204c0,11.523,1.463,22.938,4.302,34.077l12.434-21.528c1.34-2.32,3.815-3.749,6.495-3.749
		c2.68,0,5.156,1.43,6.495,3.75l12.432,21.535c2.84-11.141,4.303-22.559,4.303-34.084c0-22.207-5.39-44.019-15.729-64.2
		L242.497,358.404z"/>
	<path style="fill:#E63A2A;" d="M339.523,349.797l-12.602,21.827c3.411,8.284,7.61,16.347,12.602,24.101
		c4.992-7.753,9.191-15.816,12.602-24.1L339.523,349.797z"/>
	<path style="fill:#FBD7B5;" d="M339.523,327.297c2.68,0,5.155,1.43,6.495,3.75l12.432,21.534
		c2.84-11.141,4.303-22.558,4.303-34.083c0-22.207-5.39-44.02-15.73-64.201l-0.001,50.5c0,4.142-3.358,7.5-7.5,7.5
		c-4.142,0-7.5-3.358-7.5-7.5l0.001-50.502c-10.34,20.182-15.731,41.996-15.731,64.203c0,11.525,1.463,22.942,4.303,34.083
		l12.432-21.533C334.367,328.727,336.843,327.297,339.523,327.297z"/>
	<path style="fill:#FBD7B5;" d="M137.977,304.797c0,4.142-3.358,7.5-7.5,7.5s-7.5-3.358-7.5-7.5l-0.001-50.5
		c-10.339,20.181-15.73,41.994-15.73,64.2c0,11.525,1.463,22.942,4.303,34.083l12.432-21.534c1.34-2.32,3.815-3.75,6.495-3.75
		s5.155,1.43,6.495,3.75l12.432,21.533c2.84-11.141,4.303-22.558,4.303-34.083c0-22.208-5.391-44.021-15.731-64.203L137.977,304.797
		z"/>
	<path style="fill:#34150C;" d="M367.525,373.53c6.747-17.655,10.228-36.205,10.228-55.032c0-32.889-10.62-64.932-30.729-92.834
		l0.002-99.164c0-59.252-46.24-107.899-104.528-111.771V7.5c0-4.142-3.358-7.5-7.5-7.5s-7.5,3.358-7.5,7.5v7.229
		c-58.289,3.873-104.529,52.52-104.529,111.771c0,0.154,0.005,0.308,0.006,0.462l0.002,98.702
		c-20.109,27.903-30.729,59.947-30.729,92.834c0,18.801,3.473,37.326,10.201,54.96c0.052,0.152,0.108,0.302,0.169,0.451
		c5.314,13.801,12.627,27.052,21.839,39.456c1.415,1.905,3.648,3.028,6.021,3.028s4.606-1.123,6.021-3.028
		c9.23-12.429,16.554-25.709,21.871-39.541c0.04-0.1,0.077-0.2,0.112-0.301c6.745-17.653,10.225-36.201,10.225-55.025
		c0-32.89-10.621-64.935-30.731-92.838l-0.001-43.199c18.211,31.451,51.273,53.271,89.525,55.812l-0.001,40.993
		c-20.111,27.904-30.732,59.949-30.732,92.84c0,18.752,3.456,37.229,10.149,54.821c0.088,0.278,0.191,0.55,0.311,0.816
		c5.307,13.72,12.588,26.894,21.748,39.229c1.415,1.905,3.648,3.028,6.021,3.028s4.606-1.123,6.021-3.028
		c9.224-12.42,16.544-25.69,21.86-39.512c0.047-0.116,0.091-0.234,0.132-0.353c6.739-17.646,10.217-36.186,10.217-55.003
		c0-32.888-10.62-64.931-30.728-92.833l0.001-41c38.253-2.542,71.316-24.366,89.525-55.821l-0.001,43.209
		c-20.111,27.904-30.731,59.948-30.731,92.838c0,18.8,3.472,37.323,10.199,54.955c0.053,0.156,0.111,0.31,0.174,0.463
		c5.314,13.799,12.626,27.047,21.836,39.449c1.415,1.905,3.648,3.028,6.021,3.028s4.606-1.123,6.021-3.028
		c9.232-12.431,16.557-25.713,21.874-39.547C367.455,373.723,367.491,373.627,367.525,373.53z M117.875,371.625l12.602-21.828
		l12.602,21.827c-3.411,8.284-7.61,16.347-12.602,24.101C125.485,387.971,121.286,379.908,117.875,371.625z M149.404,352.581
		l-12.432-21.533c-1.34-2.32-3.815-3.75-6.495-3.75s-5.155,1.43-6.495,3.75l-12.432,21.534c-2.84-11.141-4.303-22.558-4.303-34.083
		c0-22.207,5.39-44.019,15.73-64.2l0.001,50.5c0,4.142,3.358,7.5,7.5,7.5s7.5-3.358,7.5-7.5l-0.001-50.502
		c10.34,20.182,15.731,41.996,15.731,64.203C153.707,330.023,152.244,341.44,149.404,352.581z M280.339,113.048
		c-4.602-5.966-9.586-11.653-14.911-16.978l-0.649-0.646c-2.946-2.912-7.695-2.884-10.606,0.063
		c-2.911,2.946-2.883,7.695,0.063,10.606l0.586,0.583c6.127,6.127,11.764,12.774,16.821,19.799
		c-5.057,7.042-10.659,13.686-16.821,19.848c-6.162,6.162-12.806,11.764-19.848,16.821c-7.025-5.057-13.672-10.694-19.799-16.821
		l-0.583-0.586c-2.912-2.946-7.661-2.975-10.606-0.063c-2.946,2.912-2.975,7.66-0.063,10.606l0.646,0.65
		c5.326,5.325,11.013,10.309,16.979,14.911c-15.592,9.01-32.819,15.529-51.214,19.324c6.755-32.74,22.134-61.781,44.842-84.489
		c22.708-22.708,51.75-38.087,84.489-44.842C295.868,80.229,289.349,97.456,280.339,113.048z M189.647,113.064
		c-9.059-15.645-15.537-32.803-19.322-51.237c18.434,3.785,35.592,10.264,51.236,19.322c-5.963,4.592-11.64,9.567-16.994,14.92
		C199.213,101.424,194.239,107.101,189.647,113.064z M235.016,71.753c-17.352-10.972-36.5-18.89-57.14-23.633
		c16.036-11.719,35.783-18.648,57.122-18.648c21.346,0,41.099,6.934,57.138,18.66C271.504,52.893,252.272,60.861,235.016,71.753z
		 M137.974,126.5c0-0.031-0.004-0.062-0.005-0.093c0.02-21.303,6.945-41.016,18.647-57.03c4.743,20.64,12.661,39.789,23.633,57.141
		c-10.892,17.257-18.86,36.488-23.621,57.121c-11.641-15.923-18.555-35.509-18.655-56.677V126.5z M222.392,425.224l12.603-21.821
		l12.603,21.831c-3.411,8.283-7.61,16.345-12.602,24.098C230.004,441.576,225.804,433.51,222.392,425.224z M253.924,406.189
		l-12.432-21.535c-1.339-2.32-3.815-3.75-6.495-3.75c-2.68,0-5.155,1.429-6.495,3.749l-12.434,21.528
		c-2.839-11.139-4.302-22.554-4.302-34.077c0-22.208,5.391-44.022,15.731-64.204l-0.001,50.504c0,4.142,3.358,7.5,7.5,7.5
		c4.142,0,7.5-3.358,7.5-7.5l0.001-50.5c10.339,20.18,15.729,41.993,15.729,64.2C258.227,383.63,256.764,395.048,253.924,406.189z
		 M313.353,183.655c-2.455-10.647-5.747-20.967-9.881-30.81c-1.604-3.82-6-5.617-9.819-4.01c-3.819,1.604-5.615,6-4.01,9.819
		c4.336,10.325,7.694,21.223,10.021,32.512c-11.292-2.327-22.191-5.685-32.518-10.022c-3.821-1.605-8.215,0.192-9.819,4.01
		c-1.604,3.819,0.191,8.215,4.01,9.819c7.899,3.318,21.056,6.83,31.537,9.357c-16.169,12.055-36.204,19.199-57.876,19.199
		c-21.346,0-41.1-6.934-57.139-18.661c33.785-7.796,63.818-24.187,87.57-47.938c23.751-23.751,40.141-53.784,47.938-87.569
		c11.726,16.04,18.66,35.793,18.66,57.139C332.026,147.853,325.087,167.613,313.353,183.655z M316.293,318.498
		c0-22.208,5.391-44.021,15.731-64.203l-0.001,50.502c0,4.142,3.358,7.5,7.5,7.5c4.142,0,7.5-3.358,7.5-7.5l0.001-50.5
		c10.339,20.181,15.73,41.994,15.73,64.201c0,11.525-1.463,22.942-4.303,34.083l-12.432-21.534c-1.34-2.32-3.815-3.75-6.495-3.75
		s-5.155,1.43-6.495,3.75l-12.432,21.533C317.756,341.44,316.293,330.023,316.293,318.498z M326.921,371.625l12.602-21.827
		l12.602,21.828c-3.411,8.284-7.61,16.347-12.602,24.1C334.531,387.971,330.332,379.908,326.921,371.625z"/>
</g>
<g>
</g>
<g>
</g>
<g>
</g>
<g>
</g>
<g>
</g>
<g>
</g>
<g>
</g>
<g>
</g>
<g>
</g>
<g>
</g>
<g>
</g>
<g>
</g>
<g>
</g>
<g>
</g>
<g>
</g>
</svg>
