<?xml version="1.0" encoding="iso-8859-1"?>
<!-- Generator: Adobe Illustrator 19.0.0, SVG Export Plug-In . SVG Version: 6.00 Build 0)  -->
<svg version="1.1" id="Layer_1" xmlns="http://www.w3.org/2000/svg" xmlns:xlink="http://www.w3.org/1999/xlink" x="0px" y="0px"
	 viewBox="0 0 512 512" style="enable-background:new 0 0 512 512;" xml:space="preserve">
<g>
	<g>
		<path d="M256.001,135.529c-37.365,0-67.765,30.399-67.765,67.765s30.399,67.765,67.765,67.765
			c37.367,0,67.765-30.398,67.765-67.765S293.368,135.529,256.001,135.529z M256.001,225.882c-12.455,0-22.588-10.133-22.588-22.588
			s10.133-22.588,22.588-22.588s22.588,10.133,22.588,22.588S268.457,225.882,256.001,225.882z"/>
	</g>
</g>
<g>
	<g>
		<path d="M423.474,397.232l-9.356-9.358V203.294c0-79.518-59.007-145.503-135.529-156.499V22.588
			C278.589,10.114,268.475,0,256.001,0s-22.588,10.114-22.588,22.588v24.207C156.889,57.791,97.883,123.776,97.883,203.294v184.581
			l-9.356,9.358c-8.82,8.82-8.82,23.12,0,31.941l15.97,15.974c4.238,4.236,9.984,6.617,15.974,6.617
			c5.99,0,11.737-2.381,15.973-6.618l15.97-15.974c8.82-8.82,8.82-23.12,0-31.941l-9.355-9.356v-74.043
			c23.739,24.249,55.194,40.907,90.353,45.96v88.318l-9.356,9.358c-8.82,8.82-8.82,23.12,0,31.941l15.97,15.974
			c4.238,4.236,9.984,6.617,15.974,6.617s11.738-2.381,15.973-6.618l15.97-15.974c8.818-8.82,8.818-23.12,0-31.941l-9.354-9.356
			v-88.318c35.159-5.051,66.614-21.709,90.353-45.96v74.043l-9.356,9.358c-8.818,8.82-8.818,23.12,0,31.941l15.97,15.974
			c4.236,4.236,9.984,6.617,15.974,6.617c5.992,0,11.738-2.381,15.973-6.618l15.97-15.974
			C432.293,420.354,432.293,406.054,423.474,397.232z M256.001,316.235c-62.276,0-112.941-50.665-112.941-112.941
			S193.725,90.351,256.001,90.351s112.941,50.667,112.941,112.943S318.278,316.235,256.001,316.235z"/>
	</g>
</g>
<g>
</g>
<g>
</g>
<g>
</g>
<g>
</g>
<g>
</g>
<g>
</g>
<g>
</g>
<g>
</g>
<g>
</g>
<g>
</g>
<g>
</g>
<g>
</g>
<g>
</g>
<g>
</g>
<g>
</g>
</svg>
