<?xml version="1.0" encoding="iso-8859-1"?>
<!-- Generator: Adobe Illustrator 19.0.0, SVG Export Plug-In . SVG Version: 6.00 Build 0)  -->
<svg version="1.1" id="Layer_1" xmlns="http://www.w3.org/2000/svg" xmlns:xlink="http://www.w3.org/1999/xlink" x="0px" y="0px"
	 viewBox="0 0 511.999 511.999" style="enable-background:new 0 0 511.999 511.999;" xml:space="preserve">
<g>
	<g>
		<path d="M380.66,51.784c-0.098-0.104-0.146-0.155-0.247-0.255c-3.905-3.904-10.237-3.904-14.143,0
			c-3.902,3.902-3.905,10.228-0.009,14.133c1.949,1.969,4.524,2.962,7.106,2.962c2.451,0,4.908-0.896,6.837-2.705
			C384.233,62.142,384.437,55.814,380.66,51.784z"/>
	</g>
</g>
<g>
	<g>
		<path d="M401.162,76.453c-3.128-4.551-9.354-5.704-13.906-2.577c-4.035,2.773-5.392,7.979-3.47,12.296h-72.101L273.204,20.73
			c25.833,2.891,51.229,12.316,73.711,28.483c4.483,3.224,10.732,2.204,13.957-2.28c3.225-4.484,2.204-10.732-2.28-13.957
			c-33.517-24.103-74.761-35.632-116.14-32.46c-41.835,3.205-81.235,21.33-110.942,51.037
			c-33.245,33.246-51.554,77.448-51.554,124.464s18.309,91.218,51.554,124.463c4.092,4.092,8.352,7.956,12.762,11.589v24.929
			c0,5.523,4.477,10,10,10c5.523,0,10-4.477,10-10v-10.674c24.553,15.042,52.456,23.794,81.702,25.421v20.002
			c-11.791,7.152-37.097,26.612-37.097,61.873c0,39.786,33.033,69.549,39.861,75.276c1.848,1.938,4.443,3.101,7.24,3.101h0.118
			c2.797,0,5.392-1.163,7.24-3.101c6.829-5.727,39.861-35.491,39.861-75.276c0-35.388-25.489-54.859-37.223-61.948v-19.926
			c30.28-1.685,59.125-11,84.298-27.033v12.286c0,5.523,4.477,10,10,10s10-4.477,10-10v-27.116
			c3.489-2.988,6.882-6.119,10.165-9.402C440.432,240.485,449.148,146.268,401.162,76.453z M382.479,106.172l-17.543,29.886
			c-4.133-1.336-8.492-2.04-12.962-2.04c-3.896,0-7.666,0.545-11.249,1.542l-17.281-29.388H382.479z M367.53,191.573
			c-4.155,4.156-9.68,6.444-15.556,6.444c-12.131,0-22.001-9.869-22-21.999c0-12.13,9.869-22,22-22
			c5.876-0.001,11.401,2.288,15.556,6.443c4.155,4.155,6.443,9.68,6.443,15.557C373.973,181.893,371.685,187.417,367.53,191.573z
			 M382.465,245.999h-58.876l17.304-29.477c3.532,0.967,7.245,1.494,11.081,1.494c4.431,0,8.754-0.692,12.857-2.006L382.465,245.999
			z M323.296,145.373c-8.189,7.669-13.321,18.565-13.321,30.643c0,12.14,5.183,23.088,13.447,30.763l-23.023,39.22H246.74
			c-1.798-7.395-5.586-14.18-11.104-19.698c-7.933-7.933-18.48-12.302-29.699-12.302c-4.213,0-8.28,0.631-12.12,1.791
			l-23.266-39.633l23.372-39.747c3.809,1.139,7.84,1.76,12.015,1.76c11.219,0,21.766-4.369,29.698-12.302
			c5.519-5.518,9.307-12.303,11.105-19.697h53.503L323.296,145.373z M227.936,256c0,5.875-2.288,11.399-6.443,15.555
			c-4.155,4.156-9.68,6.444-15.556,6.444c-12.131-0.001-22.001-9.87-22-22c0-12.13,9.87-22,22-22c5.876,0,11.401,2.289,15.556,6.444
			C225.648,244.598,227.936,250.123,227.936,256z M176.606,225.979c-5.519,5.394-9.56,12.289-11.456,20.021h-35.668v-0.001
			l29.463-50.105L176.606,225.979z M129.467,106.171h35.682c1.905,7.769,5.976,14.692,11.536,20.097l-17.725,30.144L129.467,106.171
			z M183.937,96.171c0-12.13,9.869-22,22-22c5.877,0.001,11.402,2.289,15.556,6.444c4.155,4.155,6.443,9.679,6.443,15.556
			c0,5.875-2.288,11.399-6.443,15.555c-4.155,4.156-9.68,6.444-15.556,6.444C193.806,118.17,183.936,108.301,183.937,96.171z
			 M255.973,30.885l32.509,55.286H246.74c-1.798-7.395-5.586-14.18-11.104-19.698c-0.123-0.123-0.253-0.238-0.378-0.36
			L255.973,30.885z M145.653,65.696c26.011-26.011,58.967-41.151,93.09-44.964l-20.701,35.204
			c-3.877-1.161-7.944-1.764-12.104-1.764c-19.713,0-36.289,13.655-40.788,32h-36.735C133.484,78.981,139.225,72.123,145.653,65.696
			z M112.002,115.926l35.352,60.222l-35.312,60.053C96.052,197.823,96.039,154.313,112.002,115.926z M145.652,286.338
			c-6.386-6.387-12.094-13.199-17.14-20.339h36.637c4.499,18.345,21.074,31.999,40.788,32c4.101,0,8.11-0.59,11.937-1.719
			l20.403,34.757C203.298,327.113,170.907,311.593,145.652,286.338z M283.198,433.621c-0.001,24.462-17.513,45.229-27.179,54.828
			c-9.673-9.564-27.142-30.242-27.142-54.828c0-17.33,8.823-29.473,17.097-37.051v51.428c0,5.523,4.477,10,10,10
			c5.522,0,10-4.478,10-10v-51.481C274.281,404.111,283.198,416.297,283.198,433.621z M255.974,321.675l-20.84-35.501
			c0.166-0.16,0.338-0.314,0.502-0.477c5.519-5.518,9.307-12.303,11.105-19.698h41.916L255.974,321.675z M366.294,286.338
			c-25.255,25.256-57.646,40.775-92.625,44.699l38.179-65.038h71.591C378.38,273.153,372.667,279.965,366.294,286.338z
			 M381.861,205.516c7.81-7.91,12.113-18.373,12.112-29.498c0-11.089-4.274-21.518-12.034-29.418l18.053-30.753
			c16.235,38.761,15.904,82.236-0.064,120.393L381.861,205.516z"/>
	</g>
</g>
<g>
	<g>
		<path d="M157.141,441.897c-2.602-1.185-5.733-1.185-8.335,0c-7.828,3.562-21.075,14.322-21.075,32.054
			c0,19.182,15.3,32.804,18.628,35.54c1.794,1.58,4.141,2.508,6.639,2.508c2.646,0,5.111-1.041,6.935-2.794
			c3.919-3.301,18.284-16.667,18.284-35.253C178.216,456.219,164.969,445.459,157.141,441.897z M152.982,487.451
			c-2.696-3.638-5.251-8.424-5.251-13.5c0-5.057,2.723-8.688,5.248-10.968c2.51,2.272,5.238,5.906,5.238,10.968
			C158.216,478.874,155.742,483.684,152.982,487.451z"/>
	</g>
</g>
<g>
	<g>
		<path d="M152.973,384.077c-13.785,0-25,11.219-25,25.009c0,13.79,11.215,25.008,25,25.008c13.785,0,25-11.218,25-25.008
			C177.973,395.296,166.758,384.077,152.973,384.077z M152.973,414.094c-2.757,0-5-2.246-5-5.008c0-2.762,2.243-5.009,5-5.009
			s5,2.247,5,5.009C157.973,411.848,155.73,414.094,152.973,414.094z"/>
	</g>
</g>
<g>
	<g>
		<path d="M363.141,441.897c-2.602-1.185-5.733-1.185-8.335,0c-7.828,3.562-21.075,14.322-21.075,32.054
			c0,19.182,15.3,32.804,18.628,35.54c1.794,1.58,4.141,2.508,6.639,2.508c2.646,0,5.111-1.041,6.935-2.794
			c3.919-3.301,18.284-16.667,18.284-35.253C384.216,456.219,370.969,445.459,363.141,441.897z M358.982,487.451
			c-2.696-3.638-5.251-8.424-5.251-13.5c0-5.057,2.723-8.688,5.248-10.968c2.51,2.272,5.238,5.906,5.238,10.968
			C364.216,478.874,361.742,483.684,358.982,487.451z"/>
	</g>
</g>
<g>
	<g>
		<path d="M358.973,384.077c-13.785,0-25,11.219-25,25.009c0,13.79,11.215,25.008,25,25.008c13.785,0,25-11.219,25-25.008
			C383.973,395.296,372.759,384.077,358.973,384.077z M358.973,414.094c-2.757,0-5-2.247-5-5.008s2.243-5.009,5-5.009
			c2.757,0,5,2.247,5,5.009C363.973,411.848,361.73,414.094,358.973,414.094z"/>
	</g>
</g>
<g>
	<g>
		<path d="M366.281,359.972c-0.098-0.104-0.146-0.155-0.247-0.255c-3.905-3.904-10.237-3.904-14.143,0
			c-3.902,3.902-3.905,10.228-0.009,14.133c1.948,1.969,4.524,2.962,7.106,2.962c2.451,0,4.908-0.896,6.837-2.705
			C369.854,370.33,370.058,364.002,366.281,359.972z"/>
	</g>
</g>
<g>
	<g>
		<path d="M160.281,359.972c-0.098-0.104-0.146-0.155-0.247-0.255c-3.905-3.904-10.237-3.904-14.143,0
			c-3.902,3.902-3.905,10.228-0.009,14.133c1.948,1.969,4.524,2.962,7.106,2.962c2.451,0,4.908-0.896,6.837-2.705
			C163.854,370.33,164.058,364.002,160.281,359.972z"/>
	</g>
</g>
<g>
</g>
<g>
</g>
<g>
</g>
<g>
</g>
<g>
</g>
<g>
</g>
<g>
</g>
<g>
</g>
<g>
</g>
<g>
</g>
<g>
</g>
<g>
</g>
<g>
</g>
<g>
</g>
<g>
</g>
</svg>
