<?xml version="1.0" encoding="iso-8859-1"?>
<!-- Generator: Adobe Illustrator 19.0.0, SVG Export Plug-In . SVG Version: 6.00 Build 0)  -->
<svg version="1.1" id="Capa_1" xmlns="http://www.w3.org/2000/svg" xmlns:xlink="http://www.w3.org/1999/xlink" x="0px" y="0px"
	 viewBox="0 0 512 512" style="enable-background:new 0 0 512 512;" xml:space="preserve">
<g>
	<g>
		<g>
			<circle cx="256" cy="149.333" r="21.333"/>
			<path d="M405.333,280.512V149.333C405.333,66.99,338.333,0,256,0S106.667,66.99,106.667,149.333v131.178
				c-9.483,5.548-21.333,20.747-21.333,62.342c0,58.094,22.5,79.052,25.063,81.25c2,1.708,4.458,2.563,6.938,2.563
				c2.479,0,4.938-0.854,6.938-2.563c2.563-2.198,25.063-23.156,25.063-81.25c0-41.595-11.85-56.794-21.333-62.342v-54.66
				c24.395,40.645,67.471,68.724,117.333,72.275v67.719C235.85,371.393,224,386.592,224,428.188c0,58.094,22.5,79.052,25.063,81.25
				c2,1.708,4.458,2.563,6.938,2.563s4.938-0.854,6.938-2.563C265.5,507.24,288,486.281,288,428.188
				c0-41.595-11.85-56.794-21.333-62.342v-67.719c49.861-3.551,92.939-31.63,117.333-72.275v54.66
				c-9.483,5.548-21.333,20.747-21.333,62.342c0,58.094,22.5,79.052,25.063,81.25c2,1.708,4.458,2.563,6.938,2.563
				s4.938-0.854,6.938-2.563c2.563-2.198,25.063-23.156,25.063-81.25C426.667,301.259,414.816,286.06,405.333,280.512z M256,42.667
				c21.701,0,41.858,6.592,58.721,17.768l-15.652,15.652C286.379,68.595,271.776,64,256,64s-30.379,4.595-43.069,12.087
				l-15.652-15.652C214.142,49.259,234.299,42.667,256,42.667z M298.667,149.333C298.667,172.865,279.521,192,256,192
				s-42.667-19.135-42.667-42.667s19.146-42.667,42.667-42.667S298.667,125.802,298.667,149.333z M182.758,192.41l-15.651,15.655
				c-11.181-16.865-17.773-37.027-17.773-58.732c0-21.706,6.594-41.87,17.775-58.736l15.652,15.652
				c-7.497,12.694-12.094,27.303-12.094,43.083C170.667,165.111,175.263,179.717,182.758,192.41z M256,256
				c-21.702,0-41.861-6.591-58.725-17.77l15.65-15.654c12.691,7.493,27.297,12.09,43.076,12.09s30.384-4.596,43.076-12.09
				l15.65,15.654C297.861,249.409,277.702,256,256,256z M344.893,208.065l-15.651-15.655c7.495-12.693,12.091-27.299,12.091-43.077
				c0-15.78-4.596-30.389-12.094-43.083l15.652-15.652c11.181,16.866,17.775,37.03,17.775,58.736
				C362.667,171.038,356.074,191.201,344.893,208.065z"/>
		</g>
	</g>
</g>
<g>
</g>
<g>
</g>
<g>
</g>
<g>
</g>
<g>
</g>
<g>
</g>
<g>
</g>
<g>
</g>
<g>
</g>
<g>
</g>
<g>
</g>
<g>
</g>
<g>
</g>
<g>
</g>
<g>
</g>
</svg>
