<?xml version="1.0" encoding="iso-8859-1"?>
<!-- Generator: Adobe Illustrator 18.0.0, SVG Export Plug-In . SVG Version: 6.00 Build 0)  -->
<!DOCTYPE svg PUBLIC "-//W3C//DTD SVG 1.1//EN" "http://www.w3.org/Graphics/SVG/1.1/DTD/svg11.dtd">
<svg version="1.1" id="Capa_1" xmlns="http://www.w3.org/2000/svg" xmlns:xlink="http://www.w3.org/1999/xlink" x="0px" y="0px"
	 viewBox="0 0 479.79 479.79" style="enable-background:new 0 0 479.79 479.79;" xml:space="preserve">
<path d="M410.42,332.522c-4.873-6.314-11.404-10.212-19.461-11.663v-49.596c16.894-27.186,26.668-59.237,26.668-93.532
	C417.627,79.73,337.897,0,239.896,0S62.165,79.73,62.165,177.731c0,34.294,9.773,66.343,26.666,93.529v49.6
	c-8.058,1.451-14.588,5.349-19.461,11.663c-6.71,8.694-9.972,21.703-9.972,39.768c0,17.634,3.105,34.368,8.743,47.119
	c9.155,20.707,21.592,23.798,28.191,23.798s19.036-3.092,28.19-23.798c5.638-12.751,8.743-29.485,8.743-47.119
	c0-18.065-3.262-31.073-9.972-39.767c-4.873-6.314-11.403-10.212-19.461-11.663v-28.923c31.126,37.024,77.046,61.206,128.568,63.355
	v22.712c-12.987,13.212-20.141,30.656-20.141,49.205c0,18.756,7.304,36.389,20.566,49.652c1.953,1.953,4.512,2.929,7.071,2.929
	s5.119-0.976,7.071-2.929c13.262-13.263,20.566-30.896,20.566-49.652c0-18.546-7.152-35.988-20.134-49.198v-22.719
	c51.518-2.151,97.434-26.332,128.559-63.352v28.92c-8.058,1.451-14.588,5.349-19.461,11.663c-6.71,8.694-9.972,21.702-9.972,39.767
	c0,17.634,3.105,34.368,8.743,47.119c9.155,20.707,21.592,23.798,28.19,23.798s19.036-3.092,28.191-23.798
	c5.638-12.751,8.743-29.485,8.743-47.119C420.392,354.225,417.131,341.217,410.42,332.522z M88.831,341.646v74.445
	c-4.742-7.997-9.434-22.681-9.434-43.801C79.398,351.584,83.986,344.25,88.831,341.646z M113.264,372.29
	c0,21.12-4.691,35.803-9.433,43.8v-74.444C108.676,344.25,113.264,351.585,113.264,372.29z M350.997,270.296v18.54h-18.53
	c-12.893,0-25.487-2.061-37.543-6.119c4.776-13.559,7.344-27.977,7.553-42.414c14.425-0.209,28.838-2.774,42.399-7.546
	C348.935,244.814,350.997,257.407,350.997,270.296z M239.897,334.857l-13.107-13.114c-9.122-9.122-16.568-19.48-22.215-30.865
	c12.967-6.218,24.975-14.601,35.322-24.656c10.348,10.056,22.355,18.439,35.322,24.657c-5.645,11.381-13.092,21.741-22.216,30.866
	L239.897,334.857z M128.797,85.167v-18.54h18.53c12.893,0,25.487,2.061,37.544,6.12c-4.777,13.563-7.344,27.98-7.554,42.412
	c-14.425,0.211-28.839,2.773-42.4,7.544C130.858,110.646,128.797,98.054,128.797,85.167z M250.034,255.165
	c5.15-6.281,9.704-13.003,13.611-20.093c7.773,2.249,15.75,3.782,23.845,4.585c-0.136,12.706-2.341,25.4-6.469,37.362
	C269.644,271.472,259.11,264.052,250.034,255.165z M198.772,277.018c-4.128-11.959-6.333-24.656-6.469-37.362
	c8.094-0.802,16.072-2.335,23.845-4.585c3.908,7.092,8.462,13.814,13.611,20.094C220.685,264.051,210.15,271.472,198.772,277.018z
	 M229.757,100.297c-5.141,6.268-9.697,12.99-13.615,20.096c-7.773-2.25-15.748-3.783-23.838-4.585
	c0.137-12.701,2.342-25.396,6.47-37.362C210.148,83.99,220.681,91.409,229.757,100.297z M281.025,78.443
	c4.124,11.969,6.329,24.666,6.465,37.365c-8.092,0.803-16.068,2.336-23.838,4.585c-3.918-7.105-8.475-13.828-13.616-20.096
	C259.112,91.409,269.647,83.988,281.025,78.443z M274.969,169.913c-0.411,0.822-0.847,1.655-1.293,2.489
	c-0.859-5.468-3.022-10.507-6.155-14.796c0.894,0.272,1.799,0.557,2.724,0.865c2.851,0.938,5.678,2.009,8.467,3.179
	C277.569,164.441,276.328,167.205,274.969,169.913z M273.676,183.058c0.454,0.846,0.889,1.675,1.293,2.482l0.005,0.021
	c1.355,2.7,2.596,5.46,3.737,8.252c-2.791,1.17-5.626,2.244-8.497,3.188c-0.906,0.302-1.804,0.585-2.695,0.856
	C270.653,193.568,272.816,188.528,273.676,183.058z M274.96,144.232c-0.394-0.131-0.788-0.261-1.181-0.387
	c-0.124-0.385-0.25-0.769-0.378-1.152c-0.948-2.881-2.008-5.747-3.167-8.58c5.386-1.435,10.876-2.486,16.433-3.146
	c-0.661,5.555-1.713,11.043-3.149,16.426C280.691,146.235,277.831,145.176,274.96,144.232z M255.976,138.915
	c1.17,2.796,2.244,5.631,3.186,8.495c0.302,0.906,0.585,1.805,0.856,2.695c-4.29-3.133-9.33-5.296-14.8-6.154
	c0.797-0.424,1.625-0.852,2.515-1.297C250.416,141.301,253.175,140.06,255.976,138.915z M239.896,196.928
	c-10.585,0-19.197-8.612-19.197-19.197s8.612-19.197,19.197-19.197s19.197,8.612,19.197,19.197S250.481,196.928,239.896,196.928z
	 M219.776,150.104c0.272-0.894,0.557-1.799,0.865-2.724c0.936-2.846,2.007-5.674,3.176-8.465c2.803,1.146,5.568,2.39,8.266,3.75
	c0.876,0.438,1.695,0.864,2.489,1.287C229.104,144.81,224.065,146.972,219.776,150.104z M206.117,172.4
	c-0.447-0.835-0.883-1.67-1.297-2.498c-1.353-2.696-2.592-5.452-3.732-8.239c3.648-1.529,7.377-2.873,11.161-4.024
	C209.129,161.92,206.975,166.946,206.117,172.4z M204.82,185.561l0.005-0.021c0.403-0.807,0.838-1.635,1.292-2.481
	c0.859,5.469,3.023,10.508,6.156,14.797c-0.894-0.272-1.799-0.557-2.723-0.865c-2.851-0.938-5.678-2.009-8.467-3.179
	C202.224,191.023,203.464,188.262,204.82,185.561z M206.402,142.664c-0.131,0.394-0.26,0.788-0.387,1.18
	c-3.291,1.055-6.539,2.252-9.735,3.561c-1.438-5.385-2.491-10.877-3.152-16.438c5.555,0.661,11.045,1.712,16.432,3.147
	C208.402,136.941,207.345,139.799,206.402,142.664z M187.604,168.335c1.173,2.802,2.442,5.571,3.805,8.285
	c0.183,0.366,0.38,0.738,0.569,1.107c-0.189,0.368-0.387,0.741-0.569,1.105l-0.004,0.018c-1.362,2.714-2.63,5.481-3.801,8.277
	c-4.82-2.792-9.445-5.931-13.843-9.394C178.156,174.27,182.781,171.129,187.604,168.335z M196.276,208.07
	c2.826,1.158,5.686,2.217,8.557,3.161c0.394,0.131,0.788,0.261,1.181,0.387c0.125,0.388,0.252,0.776,0.381,1.164
	c0.956,2.891,2.017,5.753,3.17,8.569c-5.387,1.435-10.879,2.485-16.439,3.146C193.788,218.941,194.84,213.453,196.276,208.07z
	 M223.822,216.544c-1.165-2.781-2.239-5.614-3.191-8.491c-0.302-0.906-0.585-1.805-0.856-2.696
	c4.287,3.131,9.323,5.292,14.788,6.152c-0.837,0.448-1.672,0.885-2.502,1.3C229.394,214.153,226.634,215.394,223.822,216.544z
	 M259.986,205.379c-1.152,3.784-2.495,7.513-4.024,11.161c-2.812-1.15-5.573-2.392-8.251-3.742
	c-0.816-0.408-1.647-0.843-2.481-1.289C250.682,210.652,255.706,208.498,259.986,205.379z M273.78,211.618
	c0.384-0.124,0.768-0.25,1.15-0.377c2.889-0.95,5.758-2.012,8.587-3.171c1.436,5.382,2.488,10.87,3.149,16.427
	c-5.563-0.661-11.058-1.713-16.446-3.148C271.529,218.154,272.725,214.908,273.78,211.618z M292.189,187.127
	c-1.171-2.797-2.439-5.563-3.8-8.276l-0.004-0.019c-0.182-0.364-0.38-0.737-0.569-1.105c0.188-0.365,0.383-0.734,0.564-1.096
	c1.366-2.721,2.637-5.494,3.81-8.296c4.822,2.793,9.446,5.933,13.843,9.398C301.635,181.196,297.011,184.334,292.189,187.127z
	 M249.292,125.436c-2.816,1.178-5.588,2.451-8.29,3.813c-0.375,0.188-0.744,0.374-1.106,0.559c-0.355-0.182-0.717-0.364-1.084-0.548
	c-2.714-1.368-5.492-2.644-8.311-3.823c2.801-4.832,5.94-9.456,9.396-13.842C243.352,115.979,246.492,120.604,249.292,125.436z
	 M177.967,130.143c0.804,8.096,2.339,16.073,4.59,23.836c-7.087,3.905-13.81,8.461-20.098,13.618
	c-8.881-9.075-16.299-19.611-21.847-30.991C152.575,132.482,165.269,130.279,177.967,130.143z M162.461,187.872
	c6.293,5.157,13.017,9.712,20.097,13.612c-2.252,7.767-3.787,15.741-4.59,23.835c-12.7-0.136-25.39-2.341-37.351-6.469
	C146.164,207.471,153.582,196.939,162.461,187.872z M230.504,230.023c2.826-1.183,5.598-2.454,8.286-3.809
	c0.367-0.183,0.735-0.37,1.106-0.561c0.364,0.188,0.726,0.371,1.084,0.55c2.701,1.361,5.478,2.635,8.308,3.82
	c-2.795,4.824-5.933,9.448-9.393,13.841C236.438,239.473,233.3,234.849,230.504,230.023z M301.826,225.321
	c-0.804-8.097-2.339-16.073-4.59-23.837c7.082-3.902,13.804-8.456,20.097-13.612c8.88,9.069,16.299,19.603,21.848,30.985
	C327.218,222.981,314.524,225.186,301.826,225.321z M317.333,167.597c-6.29-5.159-13.015-9.716-20.098-13.618
	c2.252-7.767,3.787-15.741,4.591-23.835c12.702,0.136,25.39,2.341,37.351,6.469C333.63,147.99,326.211,158.525,317.333,167.597z
	 M350.997,85.167c0,12.892-2.061,25.487-6.119,37.542c-13.557-4.776-27.97-7.345-42.401-7.553
	c-0.21-14.425-2.775-28.842-7.547-42.409c12.055-4.059,24.647-6.121,37.537-6.121h18.53V85.167z M239.896,89.241
	c-10.348-10.057-22.355-18.44-35.322-24.657c5.648-11.39,13.094-21.754,22.215-30.875l13.107-13.106l13.107,13.106
	c9.121,9.121,16.568,19.484,22.215,30.875C262.25,70.802,250.242,79.186,239.896,89.241z M126.754,142.41
	c6.219,12.968,14.599,24.975,24.65,35.324c-10.048,10.341-18.429,22.347-24.65,35.318c-11.374-5.635-21.738-13.08-30.872-22.207
	l-13.11-13.117L95.88,164.62C105.005,155.495,115.368,148.05,126.754,142.41z M128.797,270.296c0-12.892,2.061-25.487,6.119-37.542
	c13.557,4.776,27.972,7.344,42.401,7.553c0.21,14.437,2.777,28.855,7.553,42.41c-12.055,4.058-24.649,6.119-37.542,6.119h-18.53
	V270.296z M353.039,213.052c-6.221-12.971-14.602-24.978-24.65-35.317c10.05-10.347,18.43-22.356,24.65-35.324
	c11.386,5.639,21.749,13.084,30.874,22.209l13.108,13.108l-13.106,13.113C374.778,199.971,364.414,207.417,353.039,213.052z
	 M394.52,154.013c-10.54-10.541-22.552-19.097-35.769-25.511c4.806-13.903,7.246-28.446,7.246-43.336v-2.08
	c15.639,20.785,26.259,45.545,30.064,72.467L394.52,154.013z M332.467,51.626c-14.889,0-29.433,2.44-43.338,7.25
	c-6.425-13.228-14.983-25.238-25.518-35.773l-1.537-1.537c26.92,3.805,51.678,14.423,72.462,30.06H332.467z M216.183,23.103
	c-10.536,10.536-19.094,22.547-25.517,35.77c-13.904-4.807-28.448-7.247-43.34-7.247h-2.07
	c20.784-15.637,45.543-26.255,72.463-30.06L216.183,23.103z M121.045,128.501c-13.223,6.417-25.233,14.972-35.772,25.512
	l-1.542,1.542c3.805-26.923,14.425-51.684,30.065-72.47v2.081C113.797,100.054,116.237,114.596,121.045,128.501z M85.276,201.452
	c10.553,10.544,22.564,19.1,35.767,25.508c-4.806,13.903-7.246,28.447-7.246,43.336v2.08c-15.64-20.785-26.26-45.546-30.065-72.469
	L85.276,201.452z M147.327,303.836c14.892,0,29.437-2.44,43.34-7.247c6.422,13.217,14.979,25.223,25.515,35.759l1.548,1.549
	c-26.923-3.804-51.685-14.422-72.471-30.061H147.327z M263.61,332.35c10.539-10.539,19.097-22.547,25.517-35.76
	c13.904,4.807,28.448,7.247,43.34,7.247h2.067c-20.786,15.638-45.547,26.257-72.47,30.06L263.61,332.35z M358.748,226.961
	c13.209-6.411,25.219-14.967,35.773-25.513l1.539-1.54c-3.805,26.922-14.425,51.682-30.064,72.467v-2.079
	C365.997,255.409,363.557,240.866,358.748,226.961z M239.896,453.866c-4.975-7.913-7.638-17.08-7.638-26.657
	s2.663-18.744,7.638-26.657c4.975,7.913,7.638,17.08,7.638,26.657S244.871,445.954,239.896,453.866z M375.959,341.646v74.444
	c-4.742-7.997-9.433-22.681-9.433-43.8C366.526,351.585,371.114,344.25,375.959,341.646z M390.959,416.091v-74.445
	c4.845,2.604,9.434,9.938,9.434,30.644C400.392,393.41,395.701,408.094,390.959,416.091z"/>
<g>
</g>
<g>
</g>
<g>
</g>
<g>
</g>
<g>
</g>
<g>
</g>
<g>
</g>
<g>
</g>
<g>
</g>
<g>
</g>
<g>
</g>
<g>
</g>
<g>
</g>
<g>
</g>
<g>
</g>
</svg>
